# File created by Blade
# Date/Time:  Tue Apr 07 21:33:03 2015
# Frame Rate: 120.000 fps
#------------------------------------------------------
:FULLY-SPECIFIED
:DEGREES
592
root 39.396601 32.111436 -19.766700 26.413660 -63.552651 -6.491691
Spine -11.364495 -6.722866 3.952871
Head 6.993620 -2.372118 1.764359
LeftShoulder -14.661624 44.433275 8.832736
LeftArm 55.677070 15.754809 -72.651838
LeftForeArm -7.885994 0.000000 17.659950
LeftHand 6.930658 -0.000000 -7.180493
LeftHandThumb1 -26.253704 0.000000 33.147579
RightShoulder -2.837528 -7.046731 -16.559229
RightArm 16.266448 -16.037271 87.325498
RightForeArm 3.242248 -0.000000 26.256856
RightHand 7.464985 -0.000000 3.746004
RightHandThumb1 -24.326973 -0.000000 -32.862282
LeftUpLeg -17.829215 -3.333440 0.612217
LeftLeg 10.419898 -0.000000 -0.000000
LeftFoot -10.415091 7.969450 -15.842776
LeftToeBase -17.373454 -0.000000 0.000000
RightUpLeg -38.478389 5.208705 3.907527
RightLeg 35.420321 -0.000000 -0.000000
RightFoot -14.588318 -12.452516 16.122545
RightToeBase -4.393017 -0.000000 0.000000
593
root 39.426851 32.134288 -19.761915 26.176946 -63.590327 -6.017716
Spine -11.416519 -6.720439 3.625832
Head 7.046867 -2.452129 1.865684
LeftShoulder -14.527173 44.367267 8.958410
LeftArm 55.715308 15.699523 -72.542260
LeftForeArm -7.858898 -0.000000 17.652699
LeftHand 6.970798 -0.000000 -7.172454
LeftHandThumb1 -26.253704 0.000000 33.147579
RightShoulder -2.847594 -7.061732 -16.441300
RightArm 16.362686 -16.048267 87.323090
RightForeArm 2.999090 -0.000000 26.405124
RightHand 7.523684 0.000000 3.994910
RightHandThumb1 -24.326973 -0.000000 -32.862282
LeftUpLeg -17.985000 -3.417321 0.396764
LeftLeg 10.288386 -0.000000 -0.000000
LeftFoot -9.644374 8.043871 -15.573200
LeftToeBase -17.925575 -0.000000 0.000000
RightUpLeg -39.099908 5.232829 3.563969
RightLeg 35.908640 -0.000000 -0.000000
RightFoot -14.418545 -11.947043 15.903134
RightToeBase -4.416786 -0.000000 0.000000
594
root 39.446220 32.150679 -19.766429 26.353874 -63.531544 -6.039005
Spine -11.456472 -6.714658 3.589293
Head 7.110404 -2.500614 1.869263
LeftShoulder -14.457463 44.381849 9.020105
LeftArm 55.813170 15.652522 -72.426874
LeftForeArm -7.875934 -0.000000 17.683014
LeftHand 6.909001 -0.000000 -7.144319
LeftHandThumb1 -26.253704 0.000000 33.147579
RightShoulder -2.797425 -7.045839 -16.441144
RightArm 16.384145 -16.104502 87.355468
RightForeArm 3.168657 -0.000000 26.614218
RightHand 7.574889 -0.000000 3.635372
RightHandThumb1 -24.326973 -0.000000 -32.862282
LeftUpLeg -18.053826 -3.440928 0.411563
LeftLeg 10.011559 -0.000000 -0.000000
LeftFoot -9.330772 8.189459 -15.389404
LeftToeBase -17.984100 -0.000000 0.000000
RightUpLeg -39.611633 5.336133 3.462321
RightLeg 36.256465 -0.000000 -0.000000
RightFoot -14.153763 -11.466717 15.779500
RightToeBase -4.743151 -0.000000 0.000000
595
root 39.459429 32.164766 -19.770001 26.637336 -63.463370 -6.235810
Spine -11.446539 -6.683391 3.649435
Head 7.178396 -2.601384 1.834126
LeftShoulder -14.389482 44.317351 9.073155
LeftArm 55.830281 15.635303 -72.359604
LeftForeArm -7.867725 -0.000000 17.701694
LeftHand 6.907184 -0.000000 -7.115277
LeftHandThumb1 -26.253704 0.000000 33.147579
RightShoulder -2.780158 -6.984197 -16.473205
RightArm 16.391870 -16.173791 87.397288
RightForeArm 3.117429 -0.000000 26.760003
RightHand 7.688757 -0.000000 3.664029
RightHandThumb1 -24.326973 -0.000000 -32.862282
LeftUpLeg -18.063136 -3.398259 0.494307
LeftLeg 9.726956 -0.000000 -0.000000
LeftFoot -9.178246 8.257780 -15.275697
LeftToeBase -17.855596 -0.000000 0.000000
RightUpLeg -40.008588 5.522978 3.409249
RightLeg 36.487305 -0.000000 -0.000000
RightFoot -13.713852 -10.926912 15.676054
RightToeBase -5.217671 -0.000000 0.000000
596
root 39.470026 32.177174 -19.773548 26.831337 -63.388947 -6.397818
Spine -11.373125 -6.659782 3.688352
Head 7.230413 -2.644030 1.795576
LeftShoulder -14.348896 44.278108 9.113094
LeftArm 55.905905 15.608283 -72.296617
LeftForeArm -7.793394 -0.000000 17.680020
LeftHand 6.930333 -0.000000 -7.193897
LeftHandThumb1 -26.253704 0.000000 33.147579
RightShoulder -2.735299 -6.929403 -16.513378
RightArm 16.415706 -16.239185 87.449374
RightForeArm 3.115440 -0.000000 26.903706
RightHand 7.691775 -0.000000 3.579016
RightHandThumb1 -24.326973 -0.000000 -32.862282
LeftUpLeg -18.011559 -3.367836 0.553107
LeftLeg 9.449915 -0.000000 -0.000000
LeftFoot -9.039419 8.371729 -15.190467
LeftToeBase -17.770455 -0.000000 0.000000
RightUpLeg -40.319889 5.713476 3.349142
RightLeg 36.655770 -0.000000 -0.000000
RightFoot -13.103850 -10.479680 15.583071
RightToeBase -5.716971 -0.000000 0.000000
597
root 39.477771 32.194657 -19.776041 27.125773 -63.286339 -6.538011
Spine -11.473747 -6.639732 3.750404
Head 7.356928 -2.746131 1.754190
LeftShoulder -14.288578 44.222891 9.151405
LeftArm 55.915262 15.620004 -72.205038
LeftForeArm -7.798419 -0.000000 17.681043
LeftHand 6.940735 0.000000 -7.169260
LeftHandThumb1 -26.253704 0.000000 33.147579
RightShoulder -2.688902 -6.892849 -16.547314
RightArm 16.376760 -16.237038 87.528250
RightForeArm 3.034154 -0.000000 27.040698
RightHand 7.757495 -0.000000 3.677508
RightHandThumb1 -24.326973 -0.000000 -32.862282
LeftUpLeg -18.075941 -3.394663 0.624164
LeftLeg 9.160840 -0.000000 -0.000000
LeftFoot -8.835822 8.580324 -15.058687
LeftToeBase -17.691367 -0.000000 0.000000
RightUpLeg -40.690141 5.875922 3.284263
RightLeg 36.691715 -0.000000 -0.000000
RightFoot -12.313205 -10.195615 15.646179
RightToeBase -6.224635 -0.000000 0.000000
